{"title":"Blue.Valentine.2011.DVDScr.XVID.AC3.HQ.Hive-CM8","uid":6111264,"size":1649385979,"categoryP":"video","categoryS":"movies","magnet":"?xt=urn:btih:67d30a73b14f96940ab6dad58756a03548d9e8ac&amp;dn=Blue.Valentine.2011.DVDScr.XVID.AC3.HQ.Hive-CM8&amp;tr=udp%3A%2F%2Ftracker.openbittorrent.com%3A80&amp;tr=udp%3A%2F%2Fopen.demonii.com%3A1337&amp;tr=udp%3A%2F%2Ftracker.coppersurfer.tk%3A6969&amp;tr=udp%3A%2F%2Fexodus.desync.com%3A6969","seeders":1,"leechers":0,"uploader":"TvTeam","files":5,"time":1295360655,"description":". \n  &lt;a href=&quot;\nhttp://www.torrentday.com/&quot; rel=&quot;nofollow&quot; target=&quot;_NEW&quot;&gt;\nhttp://www.torrentday.com/&lt;/a&gt;        :     The Hottest Private Tracker On The Net!!!\n &lt;a href=&quot;\nhttp://www.torrentday.com&quot; rel=&quot;nofollow&quot; target=&quot;_NEW&quot;&gt;\nhttp://www.torrentday.com&lt;/a&gt;          :     Once &amp; For all ;)\n\n\n               www . TorrentDay . Com \n\n(((((((((((((= Enjoy No RAR releases =))))))))))))))))))))\n\n\n...................................NFO:....................................\n\n.[img]http://img651.imageshack.us/img651/293/bluevalentine2010moviep.jpg[/img]\n\nBlue Valentine 2011 DVDScr XVID AC3 HQ Hive-CM8\n\n\n\n\n[b]Thx Hive\n\nCM8 Doing It Right The First Time :D\n\nSource DVD-R Demedic\nthx\n\nVideo: 720x416 @bitrate 1500 2pass\nAudio: English AC3 5.1 @448\nSample: yes included\n\nEncode: added brightness,sharpness,chroma,rgb and denoise[/b]\n &lt;a href=&quot;\nhttp://www.imdb.com/title/tt1120985/&quot; rel=&quot;nofollow&quot; target=&quot;_NEW&quot;&gt;\nhttp://www.imdb.com/title/tt1120985/&lt;/a&gt;\n\n\nGeneral\nComplete name                    : Blue.Valentine.2011.DVDScr.XVID.AC3.HQ.Hive-CM8.avi\nFormat                           : AVI\nFormat/Info                      : Audio Video Interleave\nFile size                        : 1.53 GiB\nDuration                         : 1h 52mn\nOverall bit rate                 : 1 955 Kbps\nWriting application              : Nandub v1.0rc2\nWriting library                  : Nandub build 1853/release\n\nVideo\nID                               : 0\nFormat                           : MPEG-4 Visual\nFormat profile                   : Advanced Simple@L5\nFormat settings, BVOP            : Yes\nFormat settings, QPel            : Yes\nFormat settings, GMC             : No warppoints\nFormat settings, Matrix          : Default (H.263)\nMuxing mode                      : Packed bitstream\nCodec ID                         : XVID\nCodec ID/Hint                    : XviD\nDuration                         : 1h 52mn\nBit rate                         : 1 497 Kbps\nWidth                            : 720 pixels\nHeight                           : 416 pixels\nDisplay aspect ratio             : 16:9\nFrame rate                       : 23.976 fps\nColor space                      : YUV\nChroma subsampling               : 4:2:0\nBit depth                        : 8 bits\nScan type                        : Progressive\nBits/(Pixel*Frame)               : 0.208\nStream size                      : 1.17 GiB (77%)\nWriting library                  : XviD 1.2.1 (UTC 2008-12-04)\n\nAudio\nID                               : 1\nFormat                           : AC-3\nFormat/Info                      : Audio Coding 3\nMode extension                   : CM (complete main)\nCodec ID                         : 2000\nDuration                         : 1h 52mn\nBit rate mode                    : Constant\nBit rate                         : 448 Kbps\nChannel(s)                       : 6 channels\nChannel positions                : Front: L C R, Side: L R, LFE\nSampling rate                    : 48.0 KHz\nBit depth                        : 16 bits\nStream size                      : 359 MiB (23%)\nAlignment                        : Split accross interleaves\nInterleave, duration             : 42 ms (1.00 video frame)\nInterleave, preload duration     : 500 ms\n\n\nRyan Gosling   \t ... Dean\nMichelle Williams  \t... Cindy\nFaith Wladyka  \t... Frankie\nJohn Doman \t... Jerry\nMike Vogel \t... Bobby\nMarshall Johnson ... Marshall  \n\n\n\nThe film centers on a contemporary married couple, charting\ntheir evolution over a span of years by cross-cutting between\ntime periods.\n\n\n\n[img]http://img132.imageshack.us/img132/2963/bblulu.png[/img]\n[img]http://img87.imageshack.us/img87/1132/bluq.png[/img]\n[img]http://img411.imageshack.us/img411/7665/bbblubblulublululu.png[/img]\n[img]http://img251.imageshack.us/img251/2852/bbblublululu.png[/img]\n[img]http://img838.imageshack.us/img838/7384/bbblululu.png[/img]\n[img]http://img405.imageshack.us/img405/265/bbbblulublululu.png[/img]\n\n\n\n\n\n\nGreetz\n\niNK,LUSi,,MAGNET,CLASSiFiED,THC,LEGi0N,IMAGiNE,ViSiON,WBZ,FLAWL3SS,NOVA\nRapeseed,D2U,SAFC,goldadvance,MEMORY100,KaN1vE,Unevano,Pinnz,Wayne,Mr Hive\nand all P2P groups \nGreat Work Guys :D","torrent":{"xt":"urn:btih:67d30a73b14f96940ab6dad58756a03548d9e8ac","amp;dn":"Blue.Valentine.2011.DVDScr.XVID.AC3.HQ.Hive-CM8","amp;tr":["udp%3A%2F%2Ftracker.openbittorrent.com%3A80","udp%3A%2F%2Fopen.demonii.com%3A1337","udp%3A%2F%2Ftracker.coppersurfer.tk%3A6969","udp%3A%2F%2Fexodus.desync.com%3A6969"],"infoHash":"67d30a73b14f96940ab6dad58756a03548d9e8ac","infoHashBuffer":{"type":"Buffer","data":[103,211,10,115,177,79,150,148,10,182,218,213,135,86,160,53,72,217,232,172]},"announce":[],"urlList":[]}}